# xmcd
#
# Track frame offsets:
#	150
#	12734
#	30616
#	45413
#	63587
#	73907
#	88846
#	101486
#	119316
#	134103
#	152618
#	163072
#
# Disc length: 2376 seconds
#
# Revision: 1
# Processed by: cddbd v1.5.2PL0 Copyright (c) Steve Scherf et al.
# Submitted via: audiograbber 1.83.01
#
DISCID=aa09460c
DTITLE=Karaoke Country Hot Hits - Country Chartbusters Vol.260
DYEAR=1900
DGENRE=Karaoke
TTITLE0=www.memory (Guide Vocals)
TTITLE1=But for the grace of god (Guide Vocals)
TTITLE2=This everyday love (Guide Vocals)
TTITLE3=How long (Guide Vocals)
TTITLE4=Dont make me come over there and love you (Guide Vocals)
TTITLE5=Legacy (Guide Vocals)
TTITLE6=www.memory (Performance Tracks)
TTITLE7=But for the grace of god (Performance Tracks)
TTITLE8=This everyday love (Performance Tracks)
TTITLE9=How long (Performance Tracks)
TTITLE10=Don't make me come over there and love you (Performance Tracks)
TTITLE11=Legacy (Performance Tracks)
EXTD=
EXTT0=
EXTT1=
EXTT2=
EXTT3=
EXTT4=
EXTT5=
EXTT6=
EXTT7=
EXTT8=
EXTT9=
EXTT10=
EXTT11=
PLAYORDER=
